<?xml version="1.0" encoding="UTF-8"?>
<svg xmlns="http://www.w3.org/2000/svg" xmlns:xlink="http://www.w3.org/1999/xlink" viewBox="0 0 96 96" width="96px" height="96px">
<g id="surface188209487">
<path style=" stroke:none;fill-rule:nonzero;fill:rgb(50.196081%,87.058824%,91.764706%);fill-opacity:1;" d="M 48 64.199219 C 27.101562 64.199219 10.738281 57.070312 10.738281 48 C 10.738281 38.929688 27.101562 31.800781 48 31.800781 C 68.898438 31.800781 85.261719 38.929688 85.261719 48 C 85.261719 57.070312 68.898438 64.199219 48 64.199219 Z M 48 35.039062 C 27.589844 35.039062 13.980469 41.683594 13.980469 48 C 13.980469 54.316406 27.589844 60.960938 48 60.960938 C 68.410156 60.960938 82.019531 54.316406 82.019531 48 C 82.019531 41.683594 68.410156 35.039062 48 35.039062 Z M 48 35.039062 "/>
<path style=" stroke:none;fill-rule:nonzero;fill:rgb(50.196081%,87.058824%,91.764706%);fill-opacity:1;" d="M 33.582031 81.371094 C 31.960938 81.371094 30.664062 81.046875 29.371094 80.238281 C 21.433594 75.703125 23.539062 58.042969 33.90625 39.898438 C 38.765625 31.476562 44.761719 24.347656 50.59375 19.8125 C 56.910156 14.953125 62.578125 13.492188 66.46875 15.761719 C 70.519531 18.03125 71.976562 23.699219 71.003906 31.636719 C 70.03125 39.089844 66.792969 47.839844 61.933594 56.261719 C 57.070312 64.6875 51.078125 71.8125 45.246094 76.351562 C 41.035156 79.589844 36.984375 81.371094 33.582031 81.371094 Z M 62.417969 17.867188 C 59.824219 17.867188 56.425781 19.324219 52.699219 22.242188 C 47.191406 26.617188 41.519531 33.421875 36.820312 41.519531 C 26.617188 59.179688 25.644531 74.40625 30.988281 77.484375 C 33.742188 79.105469 38.28125 77.644531 43.300781 73.757812 C 48.808594 69.382812 54.480469 62.578125 59.179688 54.480469 C 63.875 46.378906 66.953125 38.117188 67.925781 31.152344 C 68.734375 24.671875 67.765625 20.136719 65.011719 18.515625 C 64.199219 18.191406 63.390625 17.867188 62.417969 17.867188 Z M 62.417969 17.867188 "/>
<path style=" stroke:none;fill-rule:nonzero;fill:rgb(50.196081%,87.058824%,91.764706%);fill-opacity:1;" d="M 62.578125 81.371094 C 54.480469 81.371094 42.816406 71.488281 34.066406 56.101562 C 23.539062 37.957031 21.433594 20.296875 29.371094 15.761719 C 37.308594 11.226562 51.5625 21.757812 62.09375 39.898438 C 66.953125 48.324219 70.195312 57.070312 71.164062 64.523438 C 72.300781 72.460938 70.679688 77.96875 66.628906 80.398438 C 65.335938 81.046875 64.039062 81.371094 62.578125 81.371094 Z M 30.988281 18.515625 C 25.644531 21.59375 26.617188 36.820312 36.820312 54.480469 C 47.027344 72.136719 59.664062 80.5625 65.011719 77.484375 C 67.765625 75.863281 68.734375 71.328125 67.925781 64.847656 C 66.953125 57.882812 63.875 49.621094 59.179688 41.519531 C 48.972656 23.863281 36.335938 15.4375 30.988281 18.515625 Z M 30.988281 18.515625 "/>
<path style=" stroke:none;fill-rule:nonzero;fill:rgb(50.196081%,87.058824%,91.764706%);fill-opacity:1;" d="M 54.480469 48 C 54.480469 51.578125 51.578125 54.480469 48 54.480469 C 44.421875 54.480469 41.519531 51.578125 41.519531 48 C 41.519531 44.421875 44.421875 41.519531 48 41.519531 C 51.578125 41.519531 54.480469 44.421875 54.480469 48 Z M 54.480469 48 "/>
</g>
</svg>
