<svg width="289" height="276" viewBox="0 0 289 276" fill="none" xmlns="http://www.w3.org/2000/svg">
<path d="M248.671 158.864C238.617 158.93 229.879 162.013 222.563 166.572C219.877 159.801 217.193 153.769 216.72 149.345C216.193 144.184 215.561 141.033 216.192 134.866C216.825 128.699 219.667 119.918 219.614 119.248C219.562 118.578 218.982 115.427 213.192 115.361C207.402 115.293 202.401 116.768 201.822 118.712C201.243 120.655 200.138 125.08 199.401 129.637C198.401 136.341 187.821 160.27 181.768 172.805C179.82 167.913 178.136 163.622 177.766 160.204C177.24 155.043 176.608 151.892 177.24 145.725C177.873 139.558 180.715 130.778 180.662 130.107C180.609 129.437 180.03 126.286 174.24 126.22C168.449 126.152 163.448 127.627 162.87 129.57C162.291 131.515 161.659 136.072 160.449 140.497C159.238 144.922 145.183 184.873 141.499 195.194C140.01 199.371 138.448 203.506 136.814 207.595C136.814 207.595 136.761 207.796 136.603 208.131C136.09 209.413 135.564 210.687 135.025 211.952V212.018C134.235 213.83 133.392 215.504 132.971 215.504C132.655 215.504 132.076 210.679 133.076 204.109C135.182 190.234 140.183 168.65 140.131 167.913C140.131 167.51 141.078 163.757 136.867 161.812C132.76 159.869 131.287 163.086 130.918 163.086C130.55 163.086 130.286 164.226 130.286 164.226C130.286 164.226 134.867 139.961 121.549 139.961C113.232 139.961 101.756 151.557 96.0716 162.013C89.6091 166.492 83.152 170.983 76.7005 175.487C73.5962 177.699 70.3846 179.912 67.3841 181.989C67.173 181.722 66.9631 181.385 66.752 181.118C50.6444 159.199 20.8518 143.714 22.115 114.288C22.5891 103.563 25.4835 75.4098 79.333 41.2246C123.654 13.4061 158.923 21.1139 165.029 38.2073C173.766 62.6074 146.132 107.92 100.335 114.488C82.8595 116.969 73.7 108.389 71.3848 105.172C68.9634 101.82 68.5942 101.618 67.6991 102.29C66.2259 103.296 67.173 106.312 67.6991 108.054C69.0684 112.611 74.7002 120.655 84.2277 124.611C92.65 128.096 113.126 130.041 137.919 117.84C165.66 104.166 187.347 66.1595 180.978 34.3203C174.608 2.01101 132.497 -8.64662 92.65 9.38395C68.9634 20.1106 43.2753 37.0012 24.7994 58.9878C2.8489 85.1287 -0.625699 107.853 0.795523 117.372C5.90244 151.155 42.4862 173.141 57.1195 189.429C56.3824 189.966 55.6971 190.436 55.1192 190.838C47.802 195.463 19.9036 214.029 12.9555 233.67C5.06032 255.924 14.2198 271.879 20.2727 274.022C39.0647 280.659 58.3827 268.728 68.7523 249.02C79.1219 229.313 77.8587 203.707 73.069 191.977C73.016 191.843 72.964 191.708 72.8579 191.574C74.7533 190.167 76.7005 188.692 78.5959 187.285C82.0793 184.662 85.6071 182.137 89.1766 179.709C87.3862 185.943 86.07 193.384 85.4389 204.109C84.6488 216.712 88.7013 233.066 94.0182 239.5C96.3877 242.318 99.177 242.384 100.967 242.384C107.178 242.384 109.969 235.815 113.074 228.039C116.864 218.522 120.285 207.461 120.285 207.461C120.285 207.461 116.022 237.357 127.603 237.357C131.813 237.357 136.077 230.385 137.972 226.833V226.899C137.972 226.899 138.077 226.698 138.288 226.229C138.709 225.358 138.972 224.821 138.972 224.821V224.688C140.657 220.934 144.447 212.421 150.079 198.277C157.343 180.045 164.344 157.255 164.344 157.255C164.344 157.255 164.977 162.818 167.134 172.069C168.398 177.498 171.028 183.464 173.135 189.228C171.451 192.245 170.397 193.92 170.397 193.92L170.45 193.988C169.081 196.266 167.608 198.746 165.976 201.161C160.238 209.874 153.396 219.863 152.447 222.743C151.341 226.162 151.605 228.643 153.712 230.654C155.238 232.129 157.974 232.329 160.765 232.129C165.924 231.659 169.555 230.05 171.344 229.045C174.135 227.772 177.398 225.827 180.451 222.945C186.084 217.649 189.504 210.075 189.189 200.088C189.031 194.591 187.61 189.094 185.873 183.932C186.4 182.995 186.873 182.056 187.4 181.118C196.295 164.561 203.192 146.395 203.192 146.395C203.192 146.395 203.824 151.958 205.981 161.21C207.034 165.902 209.192 170.996 211.087 175.956C202.717 184.604 197.559 194.658 195.716 201.227C192.401 213.427 194.979 218.923 199.875 220.196C202.085 220.8 205.244 219.459 207.56 218.185C210.508 216.979 213.982 214.902 217.299 211.817C222.932 206.523 228.352 199.148 228.036 189.162C227.878 184.604 226.931 180.112 225.615 175.754C232.721 172.003 241.881 169.924 253.565 171.666C278.622 175.42 283.57 195.327 282.622 203.708C281.675 212.086 276.411 216.644 274.675 218.051C272.936 219.46 272.358 219.929 272.516 220.934C272.726 222.409 273.569 222.342 275.043 222.074C277.096 221.605 288.203 215.303 288.676 199.886C289.466 180.179 274.727 158.663 248.671 158.864V158.864ZM55.3822 241.848C47.0648 253.377 35.4851 257.734 30.4843 254.048C25.1155 250.092 27.2208 233.066 37.4323 220.868C43.6433 213.427 51.6446 206.521 56.9614 202.299C58.1716 201.361 59.9619 200.021 62.1203 198.345C62.4883 198.076 62.6994 197.942 62.6994 197.942L63.9626 196.936C67.6991 214.364 64.1206 229.715 55.3822 241.848V241.848ZM115.917 189.429C113.021 198.412 106.968 221.404 103.284 220.13C100.125 219.058 98.1769 201.629 102.652 184.402C104.915 175.754 109.705 165.432 112.495 161.411C117.022 154.975 122.023 152.829 123.233 155.445C124.76 158.864 117.706 183.799 115.917 189.429V189.429ZM165.871 219.861C164.659 220.666 163.502 221.202 162.975 220.8C162.607 220.531 163.502 219.459 163.502 219.459C163.502 219.459 169.766 210.88 172.24 206.991C173.662 204.713 175.345 202.032 177.135 199.015V199.886C177.135 210.142 169.344 217.047 165.869 219.861H165.871ZM204.402 208.667C203.506 207.862 203.665 205.182 206.665 196.802C207.823 193.518 210.56 188.022 215.245 182.726C215.771 184.871 216.141 186.95 216.088 188.893C216.034 201.831 208.771 206.656 204.402 208.667Z" fill="#CD6799"/>
</svg>
