<svg width="525" height="358" viewBox="0 0 525 358" fill="none" xmlns="http://www.w3.org/2000/svg">
<path d="M450.225 133.977C422.901 57.4927 328.486 2.28185 217.663 0.0673982C159.074 -1.10333 97.4226 12.7285 52.5357 61.1312C-27.7046 147.656 57.4666 207.448 116.846 235.859C145.533 249.613 171.382 266.151 193.644 284.994C233.752 318.874 310.912 360.975 402.806 295.009C469.411 247.198 468.426 184.923 450.225 133.977Z" fill="#F2F2F2"/>
<path d="M524.392 304.303C524.392 323.077 409.3 358 264.325 358C119.35 358 0 325.242 0 306.468C0 287.694 119.35 290.013 264.325 290.013C409.3 290.013 524.392 285.529 524.392 304.303Z" fill="#3F3D56"/>
<path opacity="0.1" d="M524.392 304.303C524.392 323.077 409.3 358 264.325 358C119.35 358 0 325.242 0 306.468C0 287.694 119.35 290.013 264.325 290.013C409.3 290.013 524.392 285.529 524.392 304.303Z" fill="black"/>
<path d="M262.5 340.245C407.475 340.245 525 325.026 525 306.252C525 287.478 407.475 272.258 262.5 272.258C117.525 272.258 0 287.478 0 306.252C0 325.026 117.525 340.245 262.5 340.245Z" fill="#3F3D56"/>
<path d="M361.878 190.64V281.555L383.241 306.338L384.868 308.223H469.161L470.864 190.64H361.878Z" fill="#2F2E41"/>
<path opacity="0.1" d="M361.878 190.64V281.555L383.241 306.338L384.552 190.64H361.878Z" fill="black"/>
<path d="M158.381 188.216V279.13L137.018 303.913L135.392 305.798H51.0972L49.3944 188.216H158.381Z" fill="#2F2E41"/>
<path opacity="0.1" d="M158.381 188.216V279.13L137.018 303.913L135.706 188.216H158.381Z" fill="black"/>
<path d="M496.408 186.398V191.853H38.3256V183.973L80.8981 168.215H458.944L496.408 186.398Z" fill="#2F2E41"/>
<path opacity="0.1" d="M496.408 186.398V191.853H38.3256V183.973L496.408 186.398Z" fill="black"/>
<path opacity="0.1" d="M103.887 213.672H83.4525L74.9381 209.429H113.253L103.887 213.672Z" fill="black"/>
<path opacity="0.1" d="M103.887 231.249H83.4525L74.9381 227.006H113.253L103.887 231.249Z" fill="black"/>
<path opacity="0.1" d="M103.887 256.099H83.4525L74.9381 251.856H113.253L103.887 256.099Z" fill="black"/>
<path opacity="0.1" d="M103.887 280.948H83.4525L74.9381 276.706H113.253L103.887 280.948Z" fill="black"/>
<path opacity="0.1" d="M416.371 216.096H436.806L445.32 211.854H407.005L416.371 216.096Z" fill="black"/>
<path opacity="0.1" d="M416.371 233.673H436.806L445.32 229.43H407.005L416.371 233.673Z" fill="black"/>
<path opacity="0.1" d="M416.371 258.523H436.806L445.32 254.28H407.005L416.371 258.523Z" fill="black"/>
<path opacity="0.1" d="M416.371 283.373H436.806L445.32 279.13H407.005L416.371 283.373Z" fill="black"/>
<path d="M323.952 153.048L321.112 165.956C321.112 165.956 307.13 171.243 316.961 171.399C326.792 171.554 373.108 171.399 373.108 171.399C373.108 171.399 382.066 171.399 367.865 165.8L365.025 152.27L323.952 153.048Z" fill="#3F3D56"/>
<path opacity="0.1" d="M314.983 171.259C316.893 170.16 318.945 169.193 321.112 168.371L323.952 155.463L365.025 155.49L367.865 168.215C370.199 169.073 372.399 170.103 374.428 171.289C376.252 170.993 378.245 169.892 367.865 165.8L365.025 152.27L323.952 153.048L321.112 165.956C321.112 165.956 309.363 170.399 314.983 171.259Z" fill="black"/>
<path d="M430.287 63.0816H258.253C254.66 63.0816 251.747 65.1551 251.747 67.7129V150.205C251.747 152.763 254.66 154.836 258.253 154.836H430.287C433.88 154.836 436.793 152.763 436.793 150.205V67.7129C436.793 65.1551 433.88 63.0816 430.287 63.0816Z" fill="#3F3D56"/>
<path d="M430.567 67.9804H257.974V136.719H430.567V67.9804Z" fill="#F2F2F2"/>
<path d="M344.27 66.5807C344.873 66.5807 345.362 66.2326 345.362 65.8032C345.362 65.3737 344.873 65.0256 344.27 65.0256C343.667 65.0256 343.178 65.3737 343.178 65.8032C343.178 66.2326 343.667 66.5807 344.27 66.5807Z" fill="#F2F2F2"/>
<path d="M436.793 142.162V150.205C436.793 150.813 436.625 151.415 436.298 151.977C435.971 152.539 435.492 153.05 434.888 153.48C434.284 153.91 433.566 154.251 432.777 154.484C431.987 154.716 431.141 154.836 430.287 154.836H258.253C257.399 154.836 256.553 154.716 255.763 154.484C254.974 154.251 254.257 153.91 253.652 153.48C253.048 153.05 252.569 152.539 252.242 151.977C251.915 151.415 251.747 150.813 251.747 150.205V142.162H436.793Z" fill="#3F3D56"/>
<path d="M344.27 151.493C346.563 151.493 348.421 150.17 348.421 148.538C348.421 146.906 346.563 145.583 344.27 145.583C341.978 145.583 340.119 146.906 340.119 148.538C340.119 150.17 341.978 151.493 344.27 151.493Z" fill="#F2F2F2"/>
<path d="M337.801 179.796V181.352H220.263V180.108L220.425 179.796L223.322 174.198H335.398L337.801 179.796Z" fill="#3F3D56"/>
<path d="M383.034 178.274C382.82 178.926 382.012 179.613 380.185 180.263C373.631 182.596 360.304 179.641 360.304 179.641C360.304 179.641 350.036 178.397 350.036 175.131C350.324 174.99 350.625 174.863 350.936 174.75C353.692 173.712 362.828 171.152 379.028 174.858C380.222 175.125 381.288 175.622 382.108 176.295C382.471 176.549 382.744 176.861 382.905 177.205C383.066 177.549 383.11 177.915 383.034 178.274Z" fill="#3F3D56"/>
<path opacity="0.1" d="M383.034 178.274C375.012 180.462 367.861 180.625 360.523 176.997C356.822 175.168 353.459 174.716 350.936 174.75C353.692 173.712 362.828 171.152 379.028 174.858C380.222 175.125 381.288 175.622 382.108 176.295C382.471 176.549 382.744 176.861 382.905 177.205C383.066 177.549 383.11 177.915 383.034 178.274Z" fill="black"/>
<path d="M372.976 176.997C374.544 176.997 375.816 176.719 375.816 176.375C375.816 176.032 374.544 175.753 372.976 175.753C371.407 175.753 370.135 176.032 370.135 176.375C370.135 176.719 371.407 176.997 372.976 176.997Z" fill="#F2F2F2"/>
<path opacity="0.1" d="M337.801 179.796V181.352H220.263V180.108L220.425 179.796H337.801Z" fill="black"/>
<path d="M404.97 100.444C404.043 99.784 392.142 89.1121 390.132 87.3517C387.969 85.5914 387.041 85.9215 385.65 86.0315C384.259 86.1415 369.267 88.0119 367.567 88.1219C365.867 88.3419 364.785 88.782 365.867 89.8822C366.794 90.8724 376.686 100.774 378.85 103.085L339.437 109.796L308.217 72.4991C306.98 71.1788 306.671 70.7388 303.889 70.8487C301.107 70.9587 279.314 72.279 277.769 72.279C276.223 72.389 274.523 72.8291 276.069 75.4696C277.614 78.1101 302.343 115.957 302.962 117.057C303.58 118.157 305.435 119.918 309.608 119.257C313.935 118.487 328.773 115.737 336.964 114.197C341.292 119.698 349.947 130.92 351.647 132.57C353.811 134.77 355.357 134.33 358.603 133.67C361.23 133.12 399.097 123.438 400.797 122.888C402.497 122.338 403.579 122.008 402.342 120.798C401.415 119.918 391.523 110.346 386.268 105.395C389.823 104.735 402.652 102.314 404.043 101.984C405.588 101.654 405.897 101.104 404.97 100.444V100.444ZM333.41 110.896C332.946 111.006 310.844 114.747 309.762 114.967C308.526 115.187 308.526 115.077 308.526 114.747C308.217 114.417 282.251 76.1297 281.787 75.6896C281.478 75.2496 281.478 74.8095 281.787 74.8095C282.096 74.8095 302.653 73.4893 303.271 73.4893C304.044 73.4893 303.889 73.5993 304.198 73.9293C304.198 73.9293 333.1 109.466 333.564 110.016C334.182 110.566 333.873 110.786 333.41 110.896V110.896ZM395.542 119.147C395.851 119.588 396.315 119.808 395.078 120.028C393.996 120.358 357.83 129.049 357.057 129.269C356.284 129.489 355.821 129.599 354.893 128.609C353.966 127.619 342.219 113.206 342.219 113.206L380.704 106.055C381.632 105.835 381.941 105.725 382.559 106.385C383.177 107.155 395.233 118.817 395.542 119.147V119.147ZM398.015 99.784C397.087 99.894 383.023 102.424 383.023 102.424L371.431 91.2024C371.122 90.8724 370.813 90.5423 371.585 90.4323C372.358 90.3223 385.496 88.672 386.114 88.562C386.732 88.4519 387.196 88.3419 387.969 89.1121C388.741 89.7722 398.633 98.7938 399.097 99.1239C399.56 99.4539 398.942 99.674 398.015 99.784V99.784Z" fill="#FB503B"/>
<path d="M240.076 84.0708C252.926 84.0708 263.343 76.6556 263.343 67.5085C263.343 58.3614 252.926 50.9462 240.076 50.9462C227.226 50.9462 216.809 58.3614 216.809 67.5085C216.809 76.6556 227.226 84.0708 240.076 84.0708Z" fill="#FFB9B9"/>
<path d="M222.932 75.7897V101.941H260.894C260.894 101.941 255.995 80.1482 258.445 73.6104L222.932 75.7897Z" fill="#FFB9B9"/>
<path d="M298.244 111.094C298.244 111.094 262.118 98.4539 262.118 97.5822C262.118 96.7105 258.445 91.0444 255.995 91.0444C253.546 91.0444 232.728 86.2501 221.095 93.2237L219.87 98.8898L175.173 119.811L187.419 151.628C187.419 151.628 195.379 157.73 192.929 162.088C190.48 166.447 194.766 188.675 194.766 188.675L290.896 186.496V156.858C290.896 156.858 293.958 149.884 295.794 147.705C297.631 145.526 295.794 138.988 295.794 138.988L310.489 125.912C310.489 125.912 308.653 113.709 298.244 111.094Z" fill="#D0CDE1"/>
<path opacity="0.1" d="M176.704 130.489L179.459 119.811C179.459 119.811 163.539 169.062 165.376 174.728C167.213 180.394 180.684 189.111 182.52 189.547C184.357 189.982 201.502 152.064 201.502 152.064L176.704 130.489Z" fill="black"/>
<path d="M185.582 118.503L175.173 119.811C175.173 119.811 159.253 169.062 161.09 174.728C162.927 180.394 176.397 189.111 178.234 189.547C180.071 189.982 197.215 152.064 197.215 152.064L185.582 118.503Z" fill="#D0CDE1"/>
<path opacity="0.1" d="M301.611 133.104L306.816 125.912C306.816 125.912 314.163 175.164 309.265 179.958C304.367 184.752 284.99 186.546 284.99 186.546L284.773 150.756L301.611 133.104Z" fill="black"/>
<path d="M302.53 120.246L310.49 125.913C310.49 125.913 317.837 175.164 312.939 179.958C308.04 184.752 288.664 186.546 288.664 186.546L288.447 150.756L302.53 120.246Z" fill="#D0CDE1"/>
<path d="M183.745 195.213C183.745 195.213 165.989 190.418 162.927 199.571C159.866 208.724 170.275 249.694 170.275 249.694C170.275 249.694 177.01 280.639 181.296 281.511C185.582 282.383 204.563 282.819 207.624 278.896C210.686 274.973 198.44 234.875 198.44 234.875L269.466 234.003C269.466 234.003 265.18 268.871 262.731 271.922C260.282 274.973 260.282 285.434 262.731 285.434C265.18 285.434 292.121 284.562 293.958 281.947C295.794 279.332 306.203 220.492 306.203 220.492C306.203 220.492 314.776 200.007 304.979 201.315C295.182 202.622 183.745 195.213 183.745 195.213Z" fill="#3F3D56"/>
<path d="M288.447 280.204C288.447 280.204 294.57 277.153 297.631 280.204C300.693 283.255 301.917 286.741 288.447 291.972C274.977 297.202 264.568 295.894 264.568 295.023V282.383L288.447 280.204Z" fill="#2F2E41"/>
<path d="M182.52 278.896C182.52 278.896 176.397 275.845 173.336 278.896C170.275 281.947 169.05 285.434 182.52 290.664C195.991 295.894 206.4 294.587 206.4 293.715V281.075L182.52 278.896Z" fill="#2F2E41"/>
<path d="M240.227 46.6251C237.909 46.5677 235.596 46.8025 233.393 47.3184C231.685 47.8072 230.053 48.4217 228.525 49.1519L218.252 53.6989C217.38 53.9676 216.64 54.4141 216.124 54.9821C215.608 55.55 215.339 56.2141 215.353 56.8904L214.069 63.7332C213.745 65.4601 213.447 67.3068 214.533 68.8681C215.439 70.1713 217.168 71.063 218.589 72.1074C220.864 73.7858 222.395 75.9033 222.991 78.1964C223.726 81.0534 223.256 84.4938 226.432 86.3171C228.152 87.3043 230.496 87.4911 232.701 87.5828C238.732 87.8335 244.783 87.6677 250.77 87.0878C251.721 87.0371 252.649 86.852 253.5 86.5433C254.579 86.0887 255.259 85.2861 255.895 84.5161C258.188 81.7361 260.553 78.7788 260.528 75.5548C260.515 73.9598 259.942 72.2468 261.018 70.8477C261.586 70.2531 262.204 69.6826 262.866 69.1394C264.198 67.807 264.457 66.0951 264.674 64.467C265.368 59.2668 264.643 55.3094 259.259 51.6463C254.233 48.2268 247.081 46.6565 240.227 46.6251Z" fill="#2F2E41"/>
<path d="M183.073 246.704L162.638 320.648H172.855L192.439 247.916L183.073 246.704Z" fill="#2F2E41"/>
<path d="M248.635 252.765L261.407 337.618H269.921L262.258 250.341L248.635 252.765Z" fill="#2F2E41"/>
<path d="M283.544 250.341L301.425 306.708H309.939L292.91 249.129L283.544 250.341Z" fill="#2F2E41"/>
<path d="M215.428 250.341L212.874 295.192H219.685L224.794 250.341H215.428Z" fill="#2F2E41"/>
<path d="M168.598 238.825C168.598 238.825 154.975 173.973 193.29 172.154C231.606 170.336 286.099 172.154 286.099 172.154C286.099 172.154 317.603 170.336 308.237 238.825C308.237 238.825 316.751 258.826 240.12 257.008C163.489 255.189 168.598 238.825 168.598 238.825Z" fill="#DC2BEC"/>
<path d="M517.7 265.308C517.7 276.617 508.255 280.566 496.605 280.566C484.954 280.566 475.51 276.617 475.51 265.308C475.51 253.999 496.605 239.612 496.605 239.612C496.605 239.612 517.7 253.999 517.7 265.308Z" fill="#DC2BEC"/>
<path d="M496.053 269.371L505.043 257.662L496.086 267.887L496.183 263.631L502.38 255.159L496.209 262.505L496.384 254.851L503.019 248.107L496.411 253.647L496.52 239.613L495.864 257.396L489.144 250.075L495.782 258.897L495.154 267.445L495.135 267.218L487.357 259.483L495.111 268.019L495.033 269.089L495.019 269.105L495.026 269.193L493.431 280.6H495.562L495.817 279.678L503.552 271.162L495.836 278.836L496.053 269.371Z" fill="#3F3D56"/>
<path d="M510.077 305.098H484.928L478.428 278.948H515.164L510.077 305.098Z" fill="#2F2E41"/>
<path d="M140.527 128.31H88.2097V171.972H140.527V128.31Z" fill="#3F3D56"/>
<path d="M132.409 135.085H96.3279V165.197H132.409V135.085Z" fill="#F2F2F2"/>
<path d="M117.985 141.48L114.321 145.997L110.656 141.48H98.4558L114.321 161.041L130.185 141.48H117.985Z" fill="#4DBA87"/>
<path d="M117.985 141.48L114.321 145.997L110.656 141.48H104.802L114.321 153.216L123.839 141.48H117.985Z" fill="#435466"/>
</svg>
