<svg width="177" height="43" viewBox="0 0 177 43" fill="none" xmlns="http://www.w3.org/2000/svg">
<mask id="path-1-inside-1" fill="white">
<path d="M7.86 32.25L0.552002 22.4214L7.86 12.2857H15.6L8.256 22.4214L15.6 32.25H7.86ZM34.2762 0.307159L24.6282 42.2137H18.6882L28.3362 0.307159H34.2762ZM108.905 35.6163C107.825 35.6163 106.937 35.2969 106.241 34.658C105.569 33.9946 105.233 33.1837 105.233 32.2254C105.233 31.2426 105.569 30.4194 106.241 29.756C106.937 29.0926 107.825 28.7609 108.905 28.7609C109.961 28.7609 110.825 29.0926 111.497 29.756C112.193 30.4194 112.541 31.2426 112.541 32.2254C112.541 33.1837 112.193 33.9946 111.497 34.658C110.825 35.2969 109.961 35.6163 108.905 35.6163ZM128.425 14.534C130.777 14.534 132.649 15.3203 134.041 16.8929C135.457 18.4409 136.165 20.5786 136.165 23.306V35.3214H130.045V24.1537C130.045 22.7777 129.697 21.7089 129.001 20.9472C128.305 20.1854 127.369 19.8046 126.193 19.8046C125.017 19.8046 124.081 20.1854 123.385 20.9472C122.689 21.7089 122.341 22.7777 122.341 24.1537V35.3214H116.185V14.7552H122.341V17.4826C122.965 16.5734 123.805 15.8609 124.861 15.3449C125.917 14.8043 127.105 14.534 128.425 14.534ZM148.615 35.6163C146.863 35.6163 145.303 35.3092 143.935 34.6949C142.567 34.0806 141.487 33.2452 140.695 32.1886C139.903 31.1074 139.459 29.9034 139.363 28.5766H145.447C145.519 29.2892 145.843 29.8666 146.419 30.3089C146.995 30.7512 147.703 30.9723 148.543 30.9723C149.311 30.9723 149.899 30.8249 150.307 30.53C150.739 30.2106 150.955 29.8052 150.955 29.3137C150.955 28.724 150.655 28.294 150.055 28.0237C149.455 27.7289 148.483 27.4094 147.139 27.0654C145.699 26.7214 144.499 26.3652 143.539 25.9966C142.579 25.6034 141.751 25.0014 141.055 24.1906C140.359 23.3552 140.011 22.2372 140.011 20.8366C140.011 19.6572 140.323 18.5883 140.947 17.63C141.595 16.6472 142.531 15.8732 143.755 15.308C145.003 14.7429 146.479 14.4603 148.183 14.4603C150.703 14.4603 152.683 15.0992 154.123 16.3769C155.587 17.6546 156.427 19.35 156.643 21.4632H150.955C150.859 20.7506 150.548 20.1854 150.02 19.7677C149.515 19.35 148.843 19.1412 148.003 19.1412C147.283 19.1412 146.731 19.2886 146.347 19.5834C145.963 19.8537 145.771 20.2346 145.771 20.726C145.771 21.3157 146.071 21.758 146.671 22.0529C147.295 22.3477 148.255 22.6426 149.551 22.9374C151.039 23.3306 152.252 23.7237 153.188 24.1169C154.123 24.4854 154.939 25.0997 155.635 25.9597C156.355 26.7952 156.727 27.9254 156.751 29.3506C156.751 30.5546 156.415 31.6357 155.743 32.594C155.095 33.5277 154.147 34.2649 152.899 34.8054C151.675 35.346 150.247 35.6163 148.615 35.6163ZM160.553 12.2857H168.292L175.6 22.4214L168.292 32.25H160.553L167.896 22.4214L160.553 12.2857Z"/>
</mask>
<path d="M7.86 32.25L0.552002 22.4214L7.86 12.2857H15.6L8.256 22.4214L15.6 32.25H7.86ZM34.2762 0.307159L24.6282 42.2137H18.6882L28.3362 0.307159H34.2762ZM108.905 35.6163C107.825 35.6163 106.937 35.2969 106.241 34.658C105.569 33.9946 105.233 33.1837 105.233 32.2254C105.233 31.2426 105.569 30.4194 106.241 29.756C106.937 29.0926 107.825 28.7609 108.905 28.7609C109.961 28.7609 110.825 29.0926 111.497 29.756C112.193 30.4194 112.541 31.2426 112.541 32.2254C112.541 33.1837 112.193 33.9946 111.497 34.658C110.825 35.2969 109.961 35.6163 108.905 35.6163ZM128.425 14.534C130.777 14.534 132.649 15.3203 134.041 16.8929C135.457 18.4409 136.165 20.5786 136.165 23.306V35.3214H130.045V24.1537C130.045 22.7777 129.697 21.7089 129.001 20.9472C128.305 20.1854 127.369 19.8046 126.193 19.8046C125.017 19.8046 124.081 20.1854 123.385 20.9472C122.689 21.7089 122.341 22.7777 122.341 24.1537V35.3214H116.185V14.7552H122.341V17.4826C122.965 16.5734 123.805 15.8609 124.861 15.3449C125.917 14.8043 127.105 14.534 128.425 14.534ZM148.615 35.6163C146.863 35.6163 145.303 35.3092 143.935 34.6949C142.567 34.0806 141.487 33.2452 140.695 32.1886C139.903 31.1074 139.459 29.9034 139.363 28.5766H145.447C145.519 29.2892 145.843 29.8666 146.419 30.3089C146.995 30.7512 147.703 30.9723 148.543 30.9723C149.311 30.9723 149.899 30.8249 150.307 30.53C150.739 30.2106 150.955 29.8052 150.955 29.3137C150.955 28.724 150.655 28.294 150.055 28.0237C149.455 27.7289 148.483 27.4094 147.139 27.0654C145.699 26.7214 144.499 26.3652 143.539 25.9966C142.579 25.6034 141.751 25.0014 141.055 24.1906C140.359 23.3552 140.011 22.2372 140.011 20.8366C140.011 19.6572 140.323 18.5883 140.947 17.63C141.595 16.6472 142.531 15.8732 143.755 15.308C145.003 14.7429 146.479 14.4603 148.183 14.4603C150.703 14.4603 152.683 15.0992 154.123 16.3769C155.587 17.6546 156.427 19.35 156.643 21.4632H150.955C150.859 20.7506 150.548 20.1854 150.02 19.7677C149.515 19.35 148.843 19.1412 148.003 19.1412C147.283 19.1412 146.731 19.2886 146.347 19.5834C145.963 19.8537 145.771 20.2346 145.771 20.726C145.771 21.3157 146.071 21.758 146.671 22.0529C147.295 22.3477 148.255 22.6426 149.551 22.9374C151.039 23.3306 152.252 23.7237 153.188 24.1169C154.123 24.4854 154.939 25.0997 155.635 25.9597C156.355 26.7952 156.727 27.9254 156.751 29.3506C156.751 30.5546 156.415 31.6357 155.743 32.594C155.095 33.5277 154.147 34.2649 152.899 34.8054C151.675 35.346 150.247 35.6163 148.615 35.6163ZM160.553 12.2857H168.292L175.6 22.4214L168.292 32.25H160.553L167.896 22.4214L160.553 12.2857Z" stroke="#DC2BEC" stroke-width="8" stroke-linejoin="round" mask="url(#path-1-inside-1)"/>
<mask id="path-2-inside-2" fill="white">
<path d="M35.6487 25.0014C35.6487 22.8883 36.0327 21.0331 36.8007 19.436C37.5927 17.8389 38.6607 16.6103 40.0047 15.7503C41.3487 14.8903 42.8487 14.4603 44.5047 14.4603C45.8247 14.4603 47.0247 14.7429 48.1047 15.308C49.2087 15.8731 50.0727 16.6349 50.6967 17.5931V8.04715H56.8527V35.3214H50.6967V32.3729C50.1207 33.3557 49.2927 34.142 48.2127 34.7317C47.1567 35.3214 45.9207 35.6163 44.5047 35.6163C42.8487 35.6163 41.3487 35.1863 40.0047 34.3263C38.6607 33.4417 37.5927 32.2009 36.8007 30.6037C36.0327 28.982 35.6487 27.1146 35.6487 25.0014ZM50.6967 25.0383C50.6967 23.4657 50.2647 22.2249 49.4007 21.3157C48.5607 20.4066 47.5287 19.952 46.3047 19.952C45.0807 19.952 44.0367 20.4066 43.1727 21.3157C42.3327 22.2003 41.9127 23.4289 41.9127 25.0014C41.9127 26.574 42.3327 27.8271 43.1727 28.7609C44.0367 29.67 45.0807 30.1246 46.3047 30.1246C47.5287 30.1246 48.5607 29.67 49.4007 28.7609C50.2647 27.8517 50.6967 26.6109 50.6967 25.0383ZM80.2422 24.7066C80.2422 25.2963 80.2062 25.9106 80.1342 26.5494H66.2022C66.2982 27.8271 66.6942 28.81 67.3902 29.498C68.1102 30.1614 68.9862 30.4931 70.0182 30.4931C71.5542 30.4931 72.6222 29.8297 73.2222 28.5029H79.7742C79.4382 29.8543 78.8262 31.0706 77.9382 32.1517C77.0742 33.2329 75.9822 34.0806 74.6622 34.6949C73.3422 35.3091 71.8662 35.6163 70.2342 35.6163C68.2662 35.6163 66.5142 35.1863 64.9782 34.3263C63.4422 33.4663 62.2422 32.2377 61.3782 30.6406C60.5142 29.0434 60.0822 27.176 60.0822 25.0383C60.0822 22.9006 60.5022 21.0331 61.3422 19.436C62.2062 17.8389 63.4062 16.6103 64.9422 15.7503C66.4782 14.8903 68.2422 14.4603 70.2342 14.4603C72.1782 14.4603 73.9062 14.878 75.4182 15.7134C76.9302 16.5489 78.1062 17.7406 78.9462 19.2886C79.8102 20.8366 80.2422 22.6426 80.2422 24.7066ZM73.9422 23.048C73.9422 21.9669 73.5822 21.1069 72.8622 20.468C72.1422 19.8291 71.2422 19.5097 70.1622 19.5097C69.1302 19.5097 68.2542 19.8169 67.5342 20.4311C66.8382 21.0454 66.4062 21.9177 66.2382 23.048H73.9422ZM92.5258 29.4243L96.8818 14.7551H103.434L96.3058 35.3214H88.7098L81.5818 14.7551H88.1698L92.5258 29.4243Z"/>
</mask>
<path d="M35.6487 25.0014C35.6487 22.8883 36.0327 21.0331 36.8007 19.436C37.5927 17.8389 38.6607 16.6103 40.0047 15.7503C41.3487 14.8903 42.8487 14.4603 44.5047 14.4603C45.8247 14.4603 47.0247 14.7429 48.1047 15.308C49.2087 15.8731 50.0727 16.6349 50.6967 17.5931V8.04715H56.8527V35.3214H50.6967V32.3729C50.1207 33.3557 49.2927 34.142 48.2127 34.7317C47.1567 35.3214 45.9207 35.6163 44.5047 35.6163C42.8487 35.6163 41.3487 35.1863 40.0047 34.3263C38.6607 33.4417 37.5927 32.2009 36.8007 30.6037C36.0327 28.982 35.6487 27.1146 35.6487 25.0014ZM50.6967 25.0383C50.6967 23.4657 50.2647 22.2249 49.4007 21.3157C48.5607 20.4066 47.5287 19.952 46.3047 19.952C45.0807 19.952 44.0367 20.4066 43.1727 21.3157C42.3327 22.2003 41.9127 23.4289 41.9127 25.0014C41.9127 26.574 42.3327 27.8271 43.1727 28.7609C44.0367 29.67 45.0807 30.1246 46.3047 30.1246C47.5287 30.1246 48.5607 29.67 49.4007 28.7609C50.2647 27.8517 50.6967 26.6109 50.6967 25.0383ZM80.2422 24.7066C80.2422 25.2963 80.2062 25.9106 80.1342 26.5494H66.2022C66.2982 27.8271 66.6942 28.81 67.3902 29.498C68.1102 30.1614 68.9862 30.4931 70.0182 30.4931C71.5542 30.4931 72.6222 29.8297 73.2222 28.5029H79.7742C79.4382 29.8543 78.8262 31.0706 77.9382 32.1517C77.0742 33.2329 75.9822 34.0806 74.6622 34.6949C73.3422 35.3091 71.8662 35.6163 70.2342 35.6163C68.2662 35.6163 66.5142 35.1863 64.9782 34.3263C63.4422 33.4663 62.2422 32.2377 61.3782 30.6406C60.5142 29.0434 60.0822 27.176 60.0822 25.0383C60.0822 22.9006 60.5022 21.0331 61.3422 19.436C62.2062 17.8389 63.4062 16.6103 64.9422 15.7503C66.4782 14.8903 68.2422 14.4603 70.2342 14.4603C72.1782 14.4603 73.9062 14.878 75.4182 15.7134C76.9302 16.5489 78.1062 17.7406 78.9462 19.2886C79.8102 20.8366 80.2422 22.6426 80.2422 24.7066ZM73.9422 23.048C73.9422 21.9669 73.5822 21.1069 72.8622 20.468C72.1422 19.8291 71.2422 19.5097 70.1622 19.5097C69.1302 19.5097 68.2542 19.8169 67.5342 20.4311C66.8382 21.0454 66.4062 21.9177 66.2382 23.048H73.9422ZM92.5258 29.4243L96.8818 14.7551H103.434L96.3058 35.3214H88.7098L81.5818 14.7551H88.1698L92.5258 29.4243Z" stroke="white" stroke-width="8" stroke-miterlimit="16" mask="url(#path-2-inside-2)"/>
</svg>
