<svg width="40" height="40" viewBox="0 0 40 40" fill="none" xmlns="http://www.w3.org/2000/svg">
<path d="M4.83333 0.5C2.4375 0.5 0.5 2.4375 0.5 4.83333V35.1667C0.5 37.5625 2.4375 39.5 4.83333 39.5H35.1667C37.5625 39.5 39.5 37.5625 39.5 35.1667V4.83333C39.5 2.4375 37.5625 0.5 35.1667 0.5H4.83333ZM4.83333 4.83333H35.1667V35.1667H4.83333V4.83333ZM10.8542 7.6875C9 7.6875 7.88542 8.80208 7.88542 10.2865C7.88542 11.776 9 12.8854 10.6667 12.8854C12.526 12.8854 13.6406 11.776 13.6406 10.2865C13.6406 8.80208 12.526 7.6875 10.8542 7.6875ZM8.03125 15.6667V30.8333H13.5V15.6667H8.03125ZM18.0104 15.6667V30.8333H23.4792V22.5417C23.4792 20.0729 25.2396 19.7188 25.7656 19.7188C26.2969 19.7188 27.7083 20.25 27.7083 22.5417V30.8333H33V22.5417C33 17.7813 30.8854 15.6667 28.2396 15.6667C25.5938 15.6667 24.1823 16.5469 23.4792 17.7813V15.6667H18.0104Z" fill="#DC2BEC"/>
</svg>
