<svg width="40" height="40" viewBox="0 0 40 40" fill="none" xmlns="http://www.w3.org/2000/svg">
<path d="M4.87502 6.43237C4.40627 6.43237 3.96877 6.52091 3.5521 6.65112L7.95835 9.45841H32.0417L36.4479 6.65112C36.0313 6.52091 35.5938 6.43237 35.125 6.43237H4.87502ZM2.02085 7.47404C1.00002 8.30737 0.338562 9.56258 0.338562 10.974V30.6355C0.338562 33.1355 2.37502 35.172 4.87502 35.172H35.125C37.625 35.172 39.6615 33.1355 39.6615 30.6355V10.974C39.6615 9.56258 39 8.30737 37.9792 7.47404L20 18.9115L2.02085 7.47404ZM4.87502 14.6251L20 24.2553L35.125 14.6251V32.1459H4.87502V14.6251Z" fill="#DC2BEC"/>
</svg>
