<svg width="39" height="39" viewBox="0 0 39 39" fill="none" xmlns="http://www.w3.org/2000/svg">
<path d="M19.3555 0C8.71094 0 0.0455733 8.65886 0.0423175 19.3034C0.0390625 22.7051 0.93099 26.0254 2.62044 28.9551L0 38.6654L10.1139 36.276C12.9362 37.8158 16.11 38.6231 19.3424 38.6231H19.3522C29.9935 38.6231 38.6556 29.9642 38.6621 19.3229C38.6654 14.1602 36.6602 9.3099 33.0143 5.66081C29.3685 2.01172 24.5215 0 19.3555 0ZM19.3522 3.86719C23.4798 3.86719 27.3633 5.47852 30.2799 8.39193C33.1966 11.3119 34.7982 15.1921 34.7949 19.3164C34.7917 27.832 27.8646 34.7591 19.349 34.7591C16.7708 34.7559 14.2188 34.1081 11.9694 32.8809L10.6673 32.1712L9.22852 32.5098L5.42318 33.4082L6.35091 29.9577L6.77083 28.4115L5.97005 27.0215C4.61914 24.6842 3.90625 22.015 3.90625 19.3034C3.91276 10.791 10.8398 3.86719 19.3522 3.86719ZM12.5195 10.3906C12.1973 10.3906 11.6764 10.5111 11.2337 10.9961C10.791 11.4779 9.54102 12.6432 9.54102 15.0163C9.54102 17.3893 11.2695 19.6842 11.5137 20.0098C11.7513 20.3288 14.8503 25.3548 19.7559 27.2884C23.8314 28.8965 24.6582 28.5775 25.5436 28.4961C26.429 28.418 28.4017 27.3307 28.8021 26.2044C29.2057 25.0781 29.2057 24.1081 29.0853 23.9095C28.9648 23.7077 28.6458 23.5872 28.1608 23.3464C27.679 23.1055 25.306 21.9401 24.8633 21.7806C24.4206 21.6178 24.0983 21.5365 23.776 22.0215C23.457 22.5033 22.5326 23.5872 22.2526 23.9095C21.9694 24.2318 21.6895 24.2741 21.2044 24.0332C20.7227 23.7891 19.1667 23.278 17.3242 21.6374C15.8887 20.3581 14.9219 18.7826 14.6387 18.2975C14.3587 17.8158 14.6126 17.5521 14.8535 17.3112C15.0716 17.0964 15.3353 16.7481 15.5762 16.4681C15.8138 16.1849 15.8984 15.9831 16.0579 15.6608C16.2207 15.3418 16.1361 15.0586 16.0189 14.8177C15.8984 14.5736 14.9577 12.1908 14.528 11.237C14.1667 10.4329 13.7858 10.4167 13.4408 10.4036C13.1608 10.3906 12.8418 10.3906 12.5195 10.3906Z" fill="#DC2BEC"/>
</svg>
