<svg width="40" height="40" viewBox="0 0 40 40" fill="none" xmlns="http://www.w3.org/2000/svg">
<path d="M17.8177 0.364566C8.69271 1.35415 1.35417 8.69269 0.364585 17.6198C-0.624999 26.9427 4.72917 35.2708 12.8594 38.4427C13.4531 38.6458 14.0521 38.2448 14.0521 37.4531V34.2812C14.0521 34.2812 13.2552 34.4791 12.2656 34.4791C9.48958 34.4791 8.29688 32.0989 8.09896 30.7083C7.90104 29.9166 7.50521 29.3229 6.91146 28.7291C6.3125 28.526 6.11458 28.526 6.11458 28.3281C6.11458 27.9323 6.71354 27.9323 6.91146 27.9323C8.09896 27.9323 9.09375 29.3229 9.48958 29.9166C10.4792 31.5052 11.6719 31.901 12.2656 31.901C13.0573 31.901 13.651 31.7031 14.0521 31.5052C14.25 30.1146 14.8438 28.7291 16.0313 27.9323C11.474 26.9427 8.09896 24.3646 8.09896 20C8.09896 17.8177 9.09375 15.6354 10.4792 14.0521C10.2813 13.651 10.0833 12.6614 10.0833 11.2708C10.0833 10.4791 10.0833 9.48957 10.4792 8.69269C10.4792 8.29686 10.875 8.09894 11.0729 8.09894H11.2708C12.2656 8.29686 14.25 8.89581 16.0313 10.6771C17.224 10.2812 18.6094 10.0833 20 10.0833C21.3906 10.0833 22.776 10.2812 23.9687 10.6771C25.75 8.89581 27.9323 8.29686 28.9271 8.09894H29.125C29.5208 8.09894 29.7187 8.29686 29.9167 8.69269C29.9167 9.48957 29.9167 10.4791 29.9167 11.2708C29.9167 12.8594 29.7187 13.651 29.5208 14.0521C30.9062 15.6354 31.901 17.6198 31.901 20C31.901 24.3646 28.526 26.9427 23.9687 27.9323C25.1562 28.9271 25.9479 30.7083 25.9479 32.4948V37.651C25.9479 38.2448 26.5469 38.8437 27.3385 38.6458C34.6771 35.6666 39.8333 28.526 39.8333 20.1979C39.8333 8.29686 29.7187 -1.02085 17.8177 0.364566Z" fill="#DC2BEC"/>
</svg>
