<svg width="49" height="27" viewBox="0 0 49 27" fill="none" xmlns="http://www.w3.org/2000/svg">
<path d="M25.244 26H17.252L8.792 13.184V26H0.8V0.512H8.792L17.252 13.544V0.512H25.244V26ZM39.0067 26.252C35.9587 26.252 33.4387 25.544 31.4467 24.128C29.4787 22.688 28.4107 20.588 28.2427 17.828H36.7387C36.8587 19.292 37.5067 20.024 38.6827 20.024C39.1147 20.024 39.4747 19.928 39.7627 19.736C40.0747 19.52 40.2307 19.196 40.2307 18.764C40.2307 18.164 39.9067 17.684 39.2587 17.324C38.6107 16.94 37.6027 16.508 36.2347 16.028C34.6027 15.452 33.2467 14.888 32.1667 14.336C31.1107 13.784 30.1987 12.98 29.4307 11.924C28.6627 10.868 28.2907 9.512 28.3147 7.856C28.3147 6.2 28.7347 4.796 29.5747 3.644C30.4387 2.468 31.6027 1.58 33.0667 0.979998C34.5547 0.379999 36.2227 0.079999 38.0707 0.079999C41.1907 0.079999 43.6627 0.799999 45.4867 2.24C47.3347 3.68 48.3067 5.708 48.4027 8.324H39.7987C39.7747 7.604 39.5947 7.088 39.2587 6.776C38.9227 6.464 38.5147 6.308 38.0347 6.308C37.6987 6.308 37.4227 6.428 37.2067 6.668C36.9907 6.884 36.8827 7.196 36.8827 7.604C36.8827 8.18 37.1947 8.66 37.8187 9.044C38.4667 9.404 39.4867 9.848 40.8787 10.376C42.4867 10.976 43.8067 11.552 44.8387 12.104C45.8947 12.656 46.8067 13.424 47.5747 14.408C48.3427 15.392 48.7267 16.628 48.7267 18.116C48.7267 19.676 48.3427 21.08 47.5747 22.328C46.8067 23.552 45.6907 24.512 44.2267 25.208C42.7627 25.904 41.0227 26.252 39.0067 26.252Z" fill="#DC2BEC"/>
</svg>
